<svg width="128" height="128" viewBox="0 0 128 128" fill="none" xmlns="http://www.w3.org/2000/svg">
<rect width="128" height="128" rx="15" fill="white"/>
<path d="M28.0229 72V67.0166L34.4697 65.9092V20.5444L28.0229 19.437V14.4141H44.8716L63.4209 58.1177H63.6582L81.6143 14.4141H98.9771V19.437L92.5303 20.5444V65.9092L98.9771 67.0166V72H78.292V67.0166L85.0947 65.9092V25.0532L84.897 25.0137L66.1895 69.9434H61.0083L41.668 25.0928L41.4702 25.1323L41.7471 49.2188V65.9092L48.708 67.0166V72H28.0229Z" fill="#616161"/>
<path d="M7.56055 81.7622L14.1865 79.5161C15.5342 83.5591 17.8926 86.4603 21.2617 88.2197C24.5934 89.9792 28.73 90.8589 33.6714 90.8589H45.1826C49.1882 90.8589 52.6883 91.7012 55.6831 93.3857C58.6779 95.0703 60.9801 97.672 62.5898 101.191C64.1247 97.672 66.3895 95.0703 69.3843 93.3857C72.3791 91.7012 75.9167 90.8589 79.9971 90.8589H91.5645C96.5059 90.8589 100.661 89.9792 104.03 88.2197C107.437 86.4603 109.795 83.5591 111.105 79.5161L117.675 81.7622C115.616 89.0246 112.341 94.1906 107.849 97.2603C103.394 100.367 97.9658 101.921 91.5645 101.921H79.9971C75.7669 101.921 72.4914 102.875 70.1704 104.785C67.8869 106.694 66.7451 109.651 66.7451 113.657H58.4907C58.4907 109.651 57.3115 106.694 54.9531 104.785C52.6322 102.875 49.3753 101.921 45.1826 101.921H33.6714C27.3075 101.921 21.8794 100.367 17.3872 97.2603C12.895 94.1906 9.61947 89.0246 7.56055 81.7622Z" fill="#F37726"/>
</svg>
